<svg width="75" height="75" viewBox="0 0 75 75" fill="none" xmlns="http://www.w3.org/2000/svg">
<rect width="74.1542" height="74.1542" rx="10.3656" fill="#007AFF"/>
<path d="M59.5871 25.8044C59.6216 26.3035 59.6216 26.8026 59.6216 27.3062C59.6216 42.6536 47.938 60.3537 26.5741 60.3537V60.3445C20.2632 60.3537 14.0833 58.546 8.77051 55.1375C9.68817 55.2479 10.6104 55.3031 11.535 55.3054C16.765 55.31 21.8455 53.5551 25.9601 50.3238C20.9899 50.2295 16.6316 46.9889 15.1091 42.258C16.8501 42.5938 18.644 42.5248 20.3529 42.0579C14.9343 40.9631 11.0359 36.2023 11.0359 30.6733V30.5261C12.6505 31.4254 14.4582 31.9245 16.3073 31.9797C11.2038 28.5689 9.63067 21.7796 12.7126 16.4714C18.6095 23.7276 27.3101 28.1388 36.65 28.6057C35.714 24.5717 36.9927 20.3444 40.0102 17.5086C44.6882 13.1112 52.0457 13.3366 56.4431 18.0123C59.0443 17.4994 61.5374 16.545 63.8189 15.1926C62.9518 17.8812 61.1372 20.165 58.7131 21.6163C61.0153 21.3449 63.2646 20.7285 65.3828 19.7878C63.8235 22.1245 61.8594 24.16 59.5871 25.8044Z" fill="white"/>
</svg>
